<?xml version="1.0" encoding="UTF-8" standalone="no"?>
<svg width="24px" height="23px" viewBox="0 0 24 23" version="1.1" xmlns="http://www.w3.org/2000/svg" xmlns:xlink="http://www.w3.org/1999/xlink">
    <!-- Generator: Sketch 44.1 (41455) - http://www.bohemiancoding.com/sketch -->
    <title>Icon / facebook</title>
    <defs></defs>
    <g id="Page-1" stroke="none" stroke-width="1" fill="none" fill-rule="evenodd">
        <g id="Release-Detail" transform="translate(-187.000000, -911.000000)">
            <g id="Icon-/-facebook" transform="translate(187.000000, 911.000000)">
                <g>
                    <rect id="Rectangle-3" fill="#308BB1" x="0.13235333" y="0" width="23" height="23" rx="2"></rect>
                    <path d="M9.13235333,9.56832844 L10.2477312,9.56832844 L10.2477312,8.48403905 C10.2477312,8.00629188 10.2597859,7.26841678 10.6074691,6.8122412 C10.9729171,6.3287839 11.4754082,5.9995 12.338906,5.9995 C13.7461347,5.9995 14.3393533,6.20062331 14.3393533,6.20062331 L14.0601916,7.85338741 C14.0601916,7.85338741 13.5951336,7.71888223 13.1617986,7.71888223 C12.727829,7.71888223 12.338906,7.87432454 12.338906,8.30829408 L12.338906,9.56832844 L14.1179274,9.56832844 L13.994208,11.1823906 L12.338906,11.1823906 L12.338906,16.7910027 L10.2477312,16.7910027 L10.2477312,11.1823906 L9.13235333,11.1823906 L9.13235333,9.56832844 Z" id="facebook-Fill-1" fill="#FFFFFF"></path>
                </g>
            </g>
        </g>
    </g>
</svg>