<?xml version="1.0" encoding="UTF-8" standalone="no"?>
<svg width="51px" height="51px" viewBox="0 0 51 51" version="1.1" xmlns="http://www.w3.org/2000/svg" xmlns:xlink="http://www.w3.org/1999/xlink">
    <!-- Generator: Sketch 44.1 (41455) - http://www.bohemiancoding.com/sketch -->
    <title>LoadMore_Icon</title>
    <defs></defs>
    <g id="Page-1" stroke="none" stroke-width="1" fill="none" fill-rule="evenodd">
        <g id="New-Releases" transform="translate(-695.000000, -3206.000000)" fill-rule="nonzero" fill="#313532">
            <g id="LoadMore_Icon" transform="translate(684.500000, 3195.056124)">
                <path d="M36.0272572,11.0327738 C22.2235331,11.0327738 11.0327738,22.2235331 11.0327738,36.0272572 C11.0327738,49.8309813 22.2235331,61.0217406 36.0272572,61.0217406 C49.8315772,61.0217406 61.0217406,49.8309813 61.0217406,36.0272572 C61.0217406,22.2235331 49.8315772,11.0327738 36.0272572,11.0327738 Z M15.8391989,25.9150535 C12.2168014,36.2227082 13.9621547,44.043726 20.7207059,51.8349496 C12.7393944,44.3952994 11.5714557,34.9016265 15.8391989,25.9150535 Z M17.1584929,25.2548106 C13.5366913,35.5636571 15.2808528,43.384079 22.0405957,51.1753026 C14.0592842,43.7356524 12.8907497,34.2425754 17.1584929,25.2548106 Z M18.1065493,28.66686 C15.6503027,35.9795862 16.2253338,42.2769209 21.9512127,49.083143 C16.0495471,43.7267141 14.3286252,36.3335432 18.1065493,28.66686 Z M19.4246515,28.0078089 C16.968405,35.3205351 17.5440319,41.6178697 23.2705067,48.4229002 C17.369437,43.067663 15.6479192,35.6744921 19.4246515,28.0078089 Z M20.3977351,31.6558296 C18.5534646,38.2326353 19.6123559,41.4808157 23.1167678,46.0947694 C18.6911145,42.4783307 17.733524,36.4419946 20.3977351,31.6558296 Z M21.7170291,30.9961826 C19.8727586,37.5729883 20.9322458,40.8217646 24.4366577,45.4345265 C20.0104085,41.8186837 19.0522221,35.7811558 21.7170291,30.9961826 Z M23.2484589,33.6806539 C22.2652452,37.9078768 22.261074,39.8188867 25.2047561,44.0693492 C21.9464456,41.6464723 21.1837101,37.0170256 23.2484589,33.6806539 Z M24.5677528,33.0216028 C23.585135,37.2488257 23.580368,39.1598356 26.5240501,43.4102981 C23.2657396,40.9862294 22.5036,36.3573786 24.5677528,33.0216028 Z M36.0272572,44.9691387 C31.089141,44.9691387 27.0853757,40.9653734 27.0853757,36.0272572 C27.0853757,31.0885451 31.089141,27.0847798 36.0272572,27.0847798 C40.9653734,27.0847798 44.9691387,31.0885451 44.9691387,36.0272572 C44.9691387,40.9659693 40.9653734,44.9691387 36.0272572,44.9691387 Z M47.7715956,38.8738098 C48.7542134,34.6465868 48.7595764,32.735577 45.8152983,28.4851145 C49.0748006,30.9079913 49.8363443,35.537438 47.7715956,38.8738098 Z M49.0920813,38.2141628 C50.0735074,33.9869399 50.0794662,32.07593 47.1345923,27.8254675 C50.3940946,30.2489402 51.1556383,34.877791 49.0920813,38.2141628 Z M47.9026907,26.4596943 C52.3295358,30.0755371 53.2865305,36.1136608 50.6223194,40.898634 C52.4677816,34.3218284 51.4082944,31.073052 47.9026907,26.4596943 Z M49.2231765,25.8006432 C53.6494257,29.4170819 54.6058245,35.4540138 51.9422092,40.2389871 C53.7870756,33.6615855 52.7281843,30.4134051 49.2231765,25.8006432 Z M52.9146969,43.8876036 C55.3709435,36.5748774 54.7959124,30.2775428 49.0688417,23.4713206 C54.9705074,28.8277495 56.6920251,36.2197287 52.9146969,43.8876036 Z M50.3887316,22.8110777 C56.2903972,28.1675067 58.0113191,35.5606776 54.2327992,43.2273607 C56.6896416,35.9152304 56.1152064,29.6178958 50.3887316,22.8110777 Z M50.2987527,20.7189182 C58.2806601,28.1585684 59.4491946,37.6522413 55.1808555,46.6394101 C58.8026571,36.3317555 57.0584957,28.5101417 50.2987527,20.7189182 Z M51.6186425,20.0592712 C59.599954,27.4995173 60.7684886,36.9925943 56.5001495,45.9797631 C60.1219511,35.6721085 58.3777897,27.8510906 51.6186425,20.0592712 Z" id="Shape" transform="translate(36.027257, 36.027257) rotate(134.000000) translate(-36.027257, -36.027257) "></path>
                <circle id="Oval" cx="36.0272572" cy="36.0272572" r="2.34481564"></circle>
            </g>
        </g>
    </g>
</svg>