<?xml version="1.0" encoding="UTF-8" standalone="no"?>
<svg width="103px" height="48px" viewBox="0 0 103 48" version="1.1" xmlns="http://www.w3.org/2000/svg" xmlns:xlink="http://www.w3.org/1999/xlink">
    <!-- Generator: Sketch 44.1 (41455) - http://www.bohemiancoding.com/sketch -->
    <title>Logo-Header</title>
    <desc>Created with Sketch.</desc>
    <defs></defs>
    <g id="oye-logo-Symbols" stroke="none" stroke-width="1" fill="none" fill-rule="evenodd">
        <g id="oye-logo-Header-Navigation" transform="translate(-76.000000, -67.000000)">
            <g id="oye-logo-Logo-Header">
                <g transform="translate(76.000000, 67.000000)">
                    <g id="oye-logo-Logo">
                        <path d="M49.0517508,10.3208638 C48.4637025,9.63923086 47.693901,8.47169133 46.902905,8.16586897 C45.1923461,7.49065331 43.4288008,9.09877758 43.8452934,10.8294313 C44.0054521,11.4621327 44.6576839,11.967291 45.0537818,12.4227157 C46.0045366,13.5058282 46.6147793,14.3797783 47.5871285,15.4841479 C48.0472099,15.9985311 48.7416308,16.4760151 48.8590005,17.0054387 C49.2762929,18.7062121 48.4425079,20.7164176 48.9877673,22.223069 C49.5972102,23.9226391 52.6020353,24.1203708 53.1790865,22.1584953 C53.4032287,21.3866198 53.2320728,20.4164108 53.2320728,19.6118474 C53.2320728,18.9364312 52.975339,17.93935 53.2320728,17.0054387 C53.3706371,16.5175267 54.162233,15.8595574 54.5045447,15.4841479 C54.9854207,14.9316623 55.4980885,14.3314483 55.8404002,13.9506243 C56.5674127,13.1199907 58.0746241,11.875043 58.3101633,10.707704 C58.6306807,9.10439268 57.2204443,7.57648411 55.4556994,8.10149587 C54.8892455,8.26232835 54.5997201,8.71273952 54.2582082,9.12003474 C53.1253004,10.396066 52.2487264,11.3829197 51.0194434,12.6735903 C50.3882062,11.8971023 49.768366,11.1522995 49.0517508,10.3208638 M50.6343427,0.140488618 C55.3911161,-0.058245781 59.2941096,2.11219055 61.7310811,4.40214828 C64.1374606,6.65440463 66.2851068,10.5302268 66.3706847,15.0924948 C66.4668599,20.0518305 64.585745,23.5155445 62.127379,26.1692804 C59.6886078,28.7907295 55.9797643,30.6884325 51.5207141,30.8763377 C46.817527,31.0796845 42.9691194,29.035989 40.4883591,26.5444893 C37.8690346,23.9284548 35.9345334,20.7432898 35.730586,15.982889 C35.5170411,11.0558401 37.5487172,7.40482251 39.9756913,4.91713308 C41.236966,3.63047323 42.594216,2.55778877 44.4229445,1.67321013 C46.1866896,0.810089183 48.2607548,0.247576579 50.6343427,0.140488618" id="oye-logo-Fill-1" fill="#313532"></path>
                        <path d="M51.0190435,12.6743925 C52.2483265,11.3829197 53.1253004,10.3952638 54.2582082,9.12003474 C54.6005199,8.71273952 54.8892455,8.26232835 55.4564992,8.10149587 C57.2196445,7.57648411 58.6306807,9.10359052 58.3093635,10.7067013 C58.0746241,11.8758452 56.5682125,13.1191885 55.8412,13.9506243 C55.4988883,14.3314483 54.9854207,14.9308601 54.5045447,15.4841479 C54.162233,15.8595574 53.3714369,16.5183289 53.231273,17.0064414 C52.975339,17.93935 53.231273,18.9364312 53.231273,19.6118474 C53.231273,20.4164108 53.4024289,21.3858176 53.1782867,22.1584953 C52.6012355,24.121173 49.5968103,23.9226391 48.9873674,22.2222668 C48.442108,20.7164176 49.275893,18.7062121 48.8594004,17.0064414 C48.7420307,16.4760151 48.04681,15.9985311 47.5875284,15.4841479 C46.6141794,14.3797783 46.0049365,13.5058282 45.0533819,12.4219135 C44.6580838,11.9664889 44.005852,11.4629348 43.8458933,10.8302335 C43.4284009,9.09877758 45.192746,7.49065331 46.9033048,8.16506682 C47.6943009,8.47169133 48.4641024,9.63983248 49.0513509,10.3208638 C49.7679661,11.1522995 50.3886061,11.8960996 51.0190435,12.6743925" id="Fill-2" fill="#FFFFFF"></path>
                        <path d="M88.9702569,16.6851775 C90.2645231,16.6851775 92.7016946,16.9581114 93.343929,16.2397798 C93.9413749,15.5645642 93.5788684,13.6235447 93.4075126,12.996659 C92.638311,10.23022 90.1887426,8.05797886 86.6828467,8.16586897 C82.695475,8.27295694 79.7024468,11.5487656 79.7024468,15.413157 C79.7024468,19.7026916 82.5571106,22.384102 86.5542799,22.6030909 C87.9871104,22.6841087 89.6874719,22.3628448 90.8629688,21.9010029 C91.9950768,21.4724506 93.4401042,20.8347357 93.4712962,19.4237415 C93.491491,18.6193786 92.9152396,17.8428906 92.1996241,17.7039169 C90.7567962,17.4301808 89.8586278,18.5927069 88.5219725,18.8508009 C86.2655543,19.2905835 84.3632449,18.5449785 84.1495,16.6851775 L88.9702569,16.6851775 L88.9702569,16.6851775 Z M86.3619295,0.139686461 C91.1302998,-0.058245781 95.0426909,2.10817977 97.4064814,4.47233702 C99.8436529,6.92252561 101.94911,10.3429231 102.099871,15.0924948 C102.248233,20.0141291 100.249548,23.530986 97.8441685,26.1692804 C95.437989,28.8013581 91.676359,30.6884325 87.2503004,30.8763377 C82.5245191,31.0788824 78.7618893,28.9884612 76.1517624,26.6130738 C73.5012459,24.1909607 71.6419254,20.5561867 71.4487752,15.982889 C71.2564248,11.055038 73.2339149,7.38837829 75.7042778,4.91633092 C76.9337608,3.68441829 78.3020079,2.46714503 80.0879474,1.60302139 C81.7859095,0.778002903 84.0843168,0.240958784 86.3619295,0.139686461 L86.3619295,0.139686461 Z" id="Fill-3" fill="#313532"></path>
                        <path d="M84.1495,13.9506243 L89.5375106,13.9506243 C89.4413354,10.8294313 84.2556726,10.8841785 84.1495,13.9506243 M84.1495,16.6851775 C84.3632449,18.5449785 86.2655543,19.2905835 88.5219725,18.8508009 C89.8586278,18.5933085 90.7559964,17.4301808 92.1996241,17.7031148 C92.9144398,17.8418879 93.4922907,18.6201808 93.4712962,19.4245437 C93.4401042,20.8347357 91.9958766,21.4716484 90.8629688,21.9018051 C89.6874719,22.3628448 87.9871104,22.6841087 86.5542799,22.603893 C82.5571106,22.384102 79.7024468,19.7034938 79.7024468,15.4139592 C79.7024468,11.5487656 82.695475,8.27295694 86.6828467,8.16586897 C90.1895424,8.05878101 92.6373112,10.23022 93.4075126,12.9958569 C93.5788684,13.6227426 93.9421747,15.5645642 93.343929,16.2387771 C92.7016946,16.9581114 90.2645231,16.6851775 88.9702569,16.6851775 L84.1495,16.6851775" id="Fill-4" fill="#FFFFFF"></path>
                        <path d="M89.5375106,13.9506243 L84.1495,13.9506243 C84.2556726,10.8841785 89.4413354,10.8294313 89.5375106,13.9506243" id="Fill-5" fill="#313532"></path>
                        <path d="M10.0412106,10.5195982 C9.13264493,11.5970956 8.23407664,13.6498154 8.39503514,15.9820869 C8.67296347,20.1751621 11.8795366,22.7428667 15.6213717,22.603893 C19.2990233,22.4641172 22.3246431,19.9274961 22.3462375,15.4841479 C22.3780293,11.0018951 19.3740039,7.96733511 14.9913341,8.21981403 C12.6393406,8.35878774 11.0669461,9.29731144 10.0412106,10.5195982 M14.925951,0.140488618 C19.7163157,-0.059047938 23.5647233,2.09193609 26.0346863,4.40134612 C28.4294688,6.64377605 30.6093066,10.5252133 30.6638926,15.0924948 C30.7172788,20.0835157 28.9319392,23.530986 26.4087899,26.1684782 C23.9072349,28.7746864 20.3039641,30.683419 15.8133222,30.8757361 C11.0991378,31.0796845 7.23973306,29.015534 4.78096711,26.5444893 C2.10825634,23.8795232 0.291324875,20.7751756 0.087577416,15.9175133 C-0.115370249,11.0829129 1.80933342,7.46939615 4.26769947,4.91713308 C5.5185769,3.6246576 6.88742391,2.56360441 8.71535254,1.67321013 C10.4573033,0.809086487 12.5849547,0.241760941 14.925951,0.140488618" id="Fill-6" fill="#313532"></path>
                        <path d="M13.4731256,18.0837383 C14.6704169,19.247267 16.8614519,18.9201875 17.7172312,17.5158111 C19.2138452,15.0443653 17.621056,11.7475 15.0551177,12.0416911 C12.606749,12.3206412 11.4304524,16.1276784 13.4731256,18.0837383 M14.9913341,8.21981403 C19.3740039,7.96733511 22.3780293,11.0018951 22.3462375,15.4841479 C22.3246431,19.9282983 19.2990233,22.463315 15.6213717,22.6030909 C11.8795366,22.7420646 8.67256357,20.1751621 8.39463524,15.982889 C8.23447654,13.6506175 9.13264493,11.5970956 10.0408107,10.5195982 C11.067346,9.29731144 12.6393406,8.35878774 14.9913341,8.21981403" id="Fill-7" fill="#FFFFFF"></path>
                        <path d="M15.0547178,12.0416911 C17.6206561,11.7466979 19.2134453,15.0443653 17.7168313,17.5158111 C16.861052,18.9201875 14.670017,19.2462643 13.4723258,18.0837383 C11.4308523,16.1276784 12.6071489,12.3206412 15.0547178,12.0416911" id="Fill-8" fill="#313532"></path>
                        <path d="M24.0404006,42.3973178 C23.9230309,42.26797 23.5273329,42.4077458 23.3887686,42.4610893 L23.3887686,42.5362915 C23.0684512,42.5362915 22.9714762,42.7618982 22.5973727,42.7282076 C22.5757783,42.5896349 22.3940252,42.8152416 22.3304416,42.858157 C22.2660582,42.8904438 22.1908775,42.9333592 22.1484885,42.9867027 C22.0525132,43.0504741 21.9559381,43.0935901 21.8813574,43.1896484 C21.6886071,43.3087687 21.4748622,43.4258836 21.3680897,43.6400596 C21.3253008,43.6514903 21.2821119,43.6514903 21.3037063,43.7054353 C21.1007587,43.8115206 20.9080084,43.9302398 20.8440249,44.1656729 C20.8872137,44.1875317 21.0903613,44.3275081 21.110956,44.1656729 C21.1859367,44.1558465 21.2821119,44.1771037 21.3037063,44.1019014 C21.3460954,44.0054421 21.4314734,43.9733558 21.5602402,43.9627272 C21.6568153,43.9627272 21.7951796,43.9839844 21.8173739,43.9087821 C21.8173739,43.8335799 21.8813574,43.8229513 21.8813574,43.770009 C22.0093244,43.7912661 22.0309188,43.6948068 22.1484885,43.7054353 C22.3512362,43.770009 22.3512362,43.6079733 22.4046224,43.512316 L22.5333892,43.512316 C22.6083699,43.5010858 22.7253397,43.5229446 22.7253397,43.4477424 C23.0032681,43.3087687 23.3451799,43.2221357 23.5807191,43.0504741 C23.6558998,43.0195911 23.7302806,42.9867027 23.7836668,42.922129 C23.8586475,42.858157 23.976617,42.8152416 24.0404006,42.7282076 C24.1799646,42.7400394 24.0615951,42.4935766 24.0937868,42.3973178 L24.0404006,42.3973178 L24.0404006,42.3973178 Z M80.2217129,37.6313019 C80.489044,37.3567637 81.5999575,37.2454644 81.4597936,37.9477529 C81.3750155,37.9633949 81.39621,38.0758974 81.39621,38.1510997 C81.2886378,38.3923484 81.0872897,38.5427528 81.0001122,38.8052587 C80.9487254,38.8052587 80.9577231,38.8804609 80.9365286,38.9285903 C80.6056139,39.3136257 80.2307106,39.6617619 79.9633795,40.1083628 C79.9003957,40.1564922 79.8574068,40.2250766 79.8370121,40.3012815 C79.7708292,40.3119101 79.7824262,40.3871123 79.7620314,40.4346401 C79.717043,40.6977476 79.472706,40.7565056 79.5034981,41.0885986 C79.5158949,41.1629987 79.4945004,41.2007001 79.4401144,41.223361 C79.3771307,41.223361 79.3869282,41.302574 79.3771307,41.3573212 C79.2811554,41.3789795 79.3227447,41.5175521 79.3119475,41.6134099 C79.2263696,41.6248406 79.2575615,41.7325302 79.2369668,41.8069302 C79.0022274,42.6008651 78.5531432,43.8664684 79.0438166,44.6275148 C79.0438166,44.7229715 79.034819,44.8096045 79.1187973,44.8206341 C79.0878053,45.0664953 79.2485638,45.1206409 79.3771307,45.2168997 L79.9003957,45.2168997 C80.2527049,45.1958431 80.5730223,45.1408953 80.8083616,45.0133524 C80.9047368,45.0237804 80.9903147,45.0237804 81.0001122,44.9485782 C81.2154566,44.9381501 81.39621,44.916893 81.5249768,44.8206341 C81.7485192,44.7989759 81.877086,44.6798556 82.0484418,44.6275148 C82.1444171,44.5831957 82.3793565,44.7027171 82.3693591,44.5627407 C82.4657342,44.5627407 82.5619094,44.5627407 82.5717069,44.4875384 C82.9578073,44.2523059 83.4812723,44.1452179 83.9295567,43.9627272 C84.037129,43.9627272 84.1870903,44.0054421 84.1970877,43.9087821 C84.2720684,43.9087821 84.3144575,43.8867228 84.3256546,43.8335799 C84.4220297,43.8018947 84.6679663,43.9087821 84.6469717,43.770009 C84.6679663,43.6948068 84.7643415,43.7160639 84.8489197,43.7054353 C84.9452948,43.7054353 85.0952561,43.7371205 85.1066532,43.6400596 C85.2028284,43.6514903 85.2988036,43.6514903 85.2988036,43.5768897 C85.3951788,43.5875183 85.491154,43.5875183 85.5009515,43.512316 C85.5337431,43.3935968 85.8124712,43.512316 85.8222686,43.3831688 C85.9184438,43.3935968 86.014619,43.3935968 86.0260161,43.3087687 C86.1221913,43.3087687 86.2723526,43.351283 86.2819501,43.254222 C86.3683278,43.254222 86.464703,43.254222 86.4743005,43.1896484 C86.4856976,43.1152483 86.5916702,43.1264785 86.678048,43.1152483 C86.7742232,43.1152483 86.9241845,43.1469335 86.933982,43.0504741 C87.0303571,43.0195911 87.2762937,43.1371071 87.2650966,42.9867027 C87.2650966,42.922129 87.3400772,42.9333592 87.383866,42.922129 C87.9169285,42.858157 88.3458179,42.7183811 88.7631103,42.5362915 C88.8478884,42.5362915 88.9440636,42.5362915 88.9556606,42.4610893 C89.0516359,42.4294041 89.2961728,42.5362915 89.2749783,42.3973178 C89.3711535,42.4077458 89.4673287,42.4077458 89.4789257,42.3325436 L89.7346597,42.3325436 C90.1845437,42.2573414 90.6656197,42.2150276 91.0389234,42.0752518 C91.1350986,42.0752518 91.2214763,42.0752518 91.2426709,42.0114803 C91.552391,42.0221089 91.8311191,41.989421 92.0112727,41.8821325 L92.0872531,41.8821325 L92.0872531,41.9469066 C92.750682,41.8821325 93.3913168,41.818361 93.968368,41.6789862 L94.1721154,41.6789862 C95.8496828,41.603784 97.5400469,41.8069302 98.9942719,42.1392238 C99.2168145,42.150454 99.3553788,42.2461112 99.517537,42.3325436 C99.517537,42.4496585 99.7310819,42.3760606 99.7726712,42.4610893 L99.7726712,42.5362915 C99.8802435,42.5152349 99.8908407,42.6008651 99.9766186,42.6008651 C100.115783,42.7183811 100.308133,42.7829548 100.490886,42.858157 C100.607256,42.8679834 100.704231,42.9008719 100.74582,42.9867027 C100.86399,43.0504741 100.884584,43.2123093 101.014151,43.254222 C101.163113,43.2760808 101.163113,43.4477424 101.269285,43.512316 C101.398852,43.5875183 101.36626,43.8115206 101.473033,43.9087821 C101.462236,43.9839844 101.473033,44.0160706 101.537416,44.0379294 C101.729767,44.3591933 101.494827,44.7131451 101.473033,45.0133524 C101.398852,45.0237804 101.419846,45.0981805 101.398852,45.1408953 C101.238293,45.1958431 101.217899,45.3885613 101.077735,45.4741916 C100.992157,45.5389657 100.884584,45.571052 100.820801,45.6665087 C99.9658214,46.1718676 99.0040694,46.2141814 97.6876089,46.1929242 L97.357494,46.1929242 C97.1765407,46.0320918 96.7380538,46.1169199 96.5129118,45.9893769 C96.4283336,45.9998049 96.3321584,46.0096314 96.3207614,45.9356324 C96.128411,45.8177153 95.8496828,45.7966587 95.5397628,45.7966587 C95.3590094,45.8494005 95.3688068,45.7108279 95.209048,45.7312829 L95.209048,45.6665087 C95.197451,45.571052 95.0490893,45.614168 94.941517,45.6027372 C94.5780108,45.6568828 94.5894078,45.3125569 94.235699,45.3356189 L94.235699,45.2168997 C94.0335512,45.1958431 93.968368,45.0454386 93.8412008,44.9485782 C93.8086092,44.8523193 93.7450256,44.7883473 93.6480506,44.7550578 C93.6586478,44.7027171 93.6162588,44.6920885 93.5836672,44.6798556 C93.5950642,44.5831957 93.5200836,44.5733692 93.5200836,44.4875384 C93.6162588,44.4989692 93.7010369,44.4989692 93.712434,44.4237669 C93.712434,44.3591933 93.7972121,44.380651 93.8412008,44.3591933 C93.9471734,44.3485647 93.9585705,44.4237669 94.0335512,44.4237669 C94.0645432,44.5087956 94.204907,44.4875384 94.3008822,44.4875384 C94.5894078,44.5831957 94.8781334,44.6592 95.0800813,44.8206341 C95.1012758,44.8950342 95.197451,44.8741781 95.283029,44.8852078 C95.2938262,44.9710386 95.43399,44.9381501 95.5397628,44.9485782 C95.5513598,45.0237804 95.6571325,45.0019216 95.7323131,45.0133524 C96.6958646,45.238959 98.0625122,45.6462542 99.1858225,45.2808717 C99.2819977,45.2808717 99.3789727,45.2808717 99.3789727,45.2168997 C99.4849454,45.2056695 99.6341069,45.238959 99.6341069,45.1408953 C99.8052628,45.1531282 99.9114354,45.1096112 99.9766186,45.0133524 C100.073394,44.8950342 100.308133,44.916893 100.297536,44.6798556 L100.361319,44.6798556 C100.361319,44.4019082 100.328528,44.1452179 100.233152,43.9627272 C100.244749,43.9087821 100.20236,43.9087821 100.169769,43.9087821 C100.094788,43.8115206 100.115783,43.6619183 99.9766186,43.6400596 C99.8476519,43.512316 99.7948655,43.2981401 99.517537,43.3087687 C99.3349841,43.1469335 99.1214391,43.0195911 98.7995222,42.9867027 L98.7995222,42.922129 C98.7789275,42.8362982 98.6297659,42.8679834 98.5345905,42.858157 L98.3406405,42.858157 L98.3406405,42.7935834 C97.1969354,42.4077458 95.6263404,42.2461112 94.235699,42.4610893 L94.0335512,42.4610893 C93.2951416,42.3973178 92.269806,42.6114937 91.552391,42.7935834 L91.4986049,42.7935834 C91.2640654,42.6760674 90.7617949,42.8362982 90.5154584,42.922129 L90.5154584,42.9867027 L90.323108,42.9867027 C89.9060156,43.0504741 89.4789257,43.0935901 89.1478111,43.254222 L89.1478111,43.3087687 L88.8266939,43.3087687 C88.7307186,43.3195978 88.5691603,43.2867094 88.5691603,43.3831688 L88.5691603,43.4477424 C88.3556154,43.4477424 88.2708372,43.5875183 88.0360978,43.5768897 C87.8321504,43.5875183 87.6399999,43.6079733 87.5226302,43.7054353 L87.5226302,43.770009 C87.2650966,43.746947 87.201313,43.9302398 86.933982,43.9087821 C86.6030673,43.9839844 86.2493585,44.0379294 85.9510354,44.1656729 L85.9510354,44.2302466 C85.7798796,44.2416773 85.6837044,44.3485647 85.5009515,44.3591933 C85.3951788,44.370223 85.2566145,44.3275081 85.2452175,44.4237669 L85.2452175,44.4875384 C84.9452948,44.4989692 84.7969331,44.6477693 84.529602,44.6798556 C84.4332268,44.7229715 84.1870903,44.6062577 84.1970877,44.7550578 L84.1970877,44.8206341 C84.037129,44.7883473 84.0469265,44.9381501 83.8773702,44.8852078 C83.4910698,44.8741781 83.3215135,45.0664953 83.0215909,45.1408953 L83.0215909,45.2168997 C82.6906762,45.3125569 82.4021506,45.4523328 82.0484418,45.5389657 C81.9520667,45.571052 81.7059301,45.4637635 81.7173272,45.6027372 L81.7173272,45.6665087 L81.5885604,45.6665087 C81.1834649,45.6568828 80.8827424,45.7312829 80.6154114,45.8702566 L80.6154114,45.9356324 L80.4132635,45.9356324 C79.7824262,46.0417176 79.034819,45.9893769 78.584935,45.7312829 C78.584935,45.6665087 78.5099543,45.688568 78.4669654,45.6665087 C78.3819873,45.6779394 78.3493957,45.6568828 78.3282012,45.6027372 C78.274415,45.5389657 78.2002342,45.4741916 78.1358508,45.3989893 C78.0820646,45.3125569 78.0396756,45.1958431 77.879117,45.2168997 L77.879117,45.077926 C77.6549748,44.7989759 77.7183584,44.2302466 77.6223832,43.8335799 L77.6223832,43.770009 C77.6223832,43.1896484 77.8685197,42.5152349 77.8155334,42.0752518 L77.6223832,42.0752518 C77.4934164,42.1293974 77.4088383,42.2150276 77.3550521,42.3325436 C77.2050908,42.4496585 77.0241375,42.5248608 76.8951707,42.6550107 C76.8423843,42.7183811 76.7242148,42.6965224 76.7036201,42.7935834 C76.6068451,42.858157 76.5014722,42.9008719 76.4354893,42.9867027 C76.4142947,43.0725335 76.3515109,43.1264785 76.2439387,43.1152483 C75.9344185,43.1896484 75.7198738,43.3831688 75.5275234,43.5768897 C75.4533425,43.5656595 75.4109535,43.5875183 75.3987566,43.6400596 C75.3023815,43.7054353 75.207206,43.746947 75.1434224,43.8335799 C74.9064835,43.8867228 74.7793163,44.048558 74.6185578,44.1656729 C74.5967634,44.2619318 74.4256076,44.1875317 74.4256076,44.2950207 C74.3726212,44.3485647 74.234057,44.337134 74.2234597,44.4237669 C74.1376818,44.4237669 74.0319091,44.4131384 74.0319091,44.4875384 C73.9349341,44.5627407 73.8385589,44.6062577 73.7635783,44.6798556 C73.7309867,44.7989759 73.4644554,44.6798556 73.4434608,44.8206341 C73.3568832,44.8852078 73.2387136,44.9267194 73.1873269,45.0133524 C73.016171,45.0237804 72.9509878,45.1310689 72.8556124,45.2168997 C72.8442154,45.2604167 72.7904292,45.2808717 72.7904292,45.3356189 C72.5980788,45.3989893 72.4709116,45.4958498 72.3307478,45.6027372 C72.2345726,45.5913065 72.1497944,45.5913065 72.1383974,45.6665087 C71.988436,45.7531417 71.8284773,45.8381703 71.678516,45.9356324 C71.6151323,45.9141747 71.5611462,45.9454588 71.5507489,45.9893769 C71.3591983,46.1488056 71.0802702,46.2240078 70.8341337,46.3214699 L70.8341337,46.3860435 L70.7053669,46.3860435 C70.4706274,46.4504166 70.3206661,46.610848 70.1185182,46.7185376 C70.1185182,46.7817075 70.0435376,46.7718811 69.9897514,46.7817075 C69.8185956,46.7817075 69.755012,46.9000256 69.6588368,46.9752279 C69.6588368,47.0504301 69.5406673,47.0291729 69.4656866,47.0398015 C69.2089528,47.14709 68.9750131,47.2435494 68.6219042,47.2435494 C68.568318,47.1795774 68.5037347,47.14709 68.428754,47.1043751 C67.7775219,46.986057 67.6371581,46.2568963 67.9692725,45.6665087 C67.9584753,45.5913065 67.9796698,45.5592202 68.0334559,45.5389657 C68.1192338,45.4741916 68.1622227,45.3566756 68.2258063,45.2808717 L68.2901897,45.2808717 C68.2683953,45.1733827 68.3537733,45.1637568 68.3537733,45.077926 C68.4085592,45.0981805 68.4183567,45.0566688 68.428754,45.0133524 C68.5143319,44.8416908 68.7066823,44.7779193 68.8134548,44.6275148 C68.9750131,44.5206274 69.1029801,44.3912796 69.1981556,44.2302466 C69.5200726,44.1123295 69.6686343,43.8229513 69.9253681,43.6400596 C69.7866038,43.532771 69.4762839,43.6302331 69.3375196,43.7054353 L69.3375196,43.770009 L69.1981556,43.770009 C68.9848106,43.7798354 68.8030575,43.8115206 68.6856877,43.9087821 L68.428754,43.9087821 C67.947878,43.9627272 67.5201883,44.0806443 67.1254901,44.2302466 L67.1254901,44.2950207 L66.9217426,44.2950207 C66.8255674,44.3046466 66.6756061,44.2619318 66.6658086,44.3591933 L66.6658086,44.4237669 L66.4724585,44.4237669 C66.2371192,44.4664818 65.9697881,44.4664818 65.8206266,44.5627407 L65.8206266,44.6275148 C65.5636928,44.6062577 65.4887121,44.7779193 65.2213811,44.7550578 C65.1252059,44.7664885 64.9868416,44.7229715 64.9654471,44.8206341 L64.9654471,44.8852078 L64.8366803,44.8852078 C64.7519022,44.916893 64.5047659,44.8096045 64.5047659,44.9485782 L64.5047659,45.0133524 C64.3556043,44.9920952 64.3664016,45.1310689 64.1960455,45.077926 C63.9711035,45.0885546 63.7883506,45.1096112 63.6605836,45.2168997 L63.6605836,45.2808717 L63.469033,45.2808717 C63.3940523,45.1958431 63.2226965,45.2493871 63.146916,45.3356189 C63.0615381,45.4318778 62.9235736,45.4637635 62.7524178,45.4741916 C62.4744894,45.4523328 62.3669172,45.6027372 62.1745668,45.6665087 C62.1533722,45.7425131 62.0473996,45.7214565 61.972219,45.7312829 C61.8436521,45.8494005 61.564724,45.8072873 61.4473543,45.9356324 L61.4473543,45.9893769 C61.2454064,45.9893769 61.2232121,46.1718676 60.9884726,46.1283506 C60.6893498,46.0852347 60.5817775,46.2356391 60.4106217,46.3214699 C60.3894271,46.4604436 60.1644851,46.3860435 60.1540878,46.5141881 C59.9933293,46.492931 59.8979539,46.5356458 59.8873566,46.6427338 C59.7585898,46.6645926 59.6624146,46.6860503 59.6306228,46.7817075 C59.3624919,46.7397948 59.4268753,47.0291729 59.2337251,47.0398015 C59.1383497,47.1683472 58.9679937,47.2000324 58.9036103,47.3718945 C58.8506239,47.3943549 58.7968378,47.4260401 58.7756433,47.5012423 C58.6572738,47.5012423 58.7322545,47.7146161 58.5822931,47.7047897 C58.4219345,47.801249 58.3045648,47.9410249 57.9948446,47.8967057 L57.8022943,47.8967057 L57.8022943,47.757732 C57.5985468,47.8118776 57.6743273,47.5870731 57.4811771,47.6295874 C57.438988,47.5756424 57.4175935,47.5110687 57.3426128,47.5012423 C57.3002237,47.3508379 57.4599826,47.4047829 57.4811771,47.308123 C57.5235662,47.3191527 57.5349632,47.2868659 57.5349632,47.2435494 C57.5985468,47.2539774 57.5985468,47.2116636 57.5985468,47.1683472 C57.7599052,47.0931449 57.8560804,46.9435427 57.9304612,46.7817075 C57.9832476,46.7931382 57.9948446,46.7504234 57.9948446,46.7185376 C58.0484308,46.6645926 58.1773975,46.674419 58.187195,46.5893903 C58.4545261,46.5027574 58.5718958,46.2568963 58.7104601,46.0531484 L58.7756433,46.0531484 C58.7536489,45.9568895 58.8390269,45.9454588 58.8390269,45.8702566 C58.9246049,45.8494005 58.893013,45.7425131 58.9036103,45.6665087 C58.9679937,45.6665087 58.9563967,45.5913065 58.9777911,45.5389657 L59.0421745,45.5389657 C59.0639689,45.2168997 59.3624919,44.8206341 59.1603441,44.4875384 C59.117955,44.4875384 59.106358,44.4237669 59.0421745,44.4237669 L59.0421745,44.2950207 C59.0421745,43.9627272 58.881416,43.8018947 58.5822931,43.770009 C58.5930904,43.7160639 58.5505013,43.7054353 58.5189095,43.7054353 L58.5189095,43.6400596 C58.3255593,43.5768897 58.3255593,43.3087687 57.9948446,43.3831688 C57.6099439,43.3087687 57.3426128,43.1152483 56.9473148,43.0504741 L56.9473148,42.9867027 C56.9677095,42.847729 56.7231726,42.9550175 56.6251978,42.922129 L56.4338472,42.922129 L56.4338472,42.858157 C56.3162775,42.7618982 56.1239271,42.7400394 55.9095824,42.7282076 L55.7824152,42.7282076 L55.7824152,42.6550107 C54.1246427,42.2362848 51.9116133,42.0114803 50.1156765,41.9469066 L49.9769122,41.9469066 C49.6020089,41.8717044 47.9662307,41.7204978 48.2125672,42.0752518 C48.2125672,42.1392238 48.2983451,42.1183677 48.3507316,42.1392238 C48.4161147,42.2256562 48.5220874,42.26797 48.6080652,42.3325436 C48.6080652,42.3973178 48.6940431,42.3858871 48.736832,42.3973178 C48.8436045,42.6008651 49.0571494,42.6965224 49.1965135,42.858157 C49.2283053,42.9333592 49.2816915,42.9973312 49.388464,42.9867027 C49.4626449,42.9752719 49.5062336,42.9973312 49.5172308,43.0504741 C49.6240032,43.1687923 49.7197786,43.2867094 49.8485453,43.3831688 C49.9227262,43.512316 50.0406958,43.6302331 50.1688627,43.7054353 C50.1688627,43.8018947 50.1688627,43.8867228 50.2332461,43.9087821 C50.2972296,43.9186086 50.2972296,43.9627272 50.3718104,43.9627272 L50.3718104,44.1019014 C50.4151992,44.7344023 50.0193013,44.916893 49.9125288,45.3989893 C50.0193013,45.6356257 49.6989839,45.4425064 49.7197786,45.6027372 C49.6553952,45.6665087 49.5812143,45.7312829 49.5172308,45.7966587 C49.3134833,45.7741983 49.2600971,45.8816873 49.1965135,45.9893769 L49.1965135,46.0531484 L49.0681466,46.0531484 C48.8969907,46.1283506 48.7042404,46.181694 48.6080652,46.3214699 C48.597468,46.3752144 48.5440817,46.3860435 48.5440817,46.4504166 C48.0520086,46.5675316 47.6569105,46.7817075 47.1758346,46.9116569 C46.929698,46.9116569 46.7267504,46.9435427 46.5873863,47.0398015 L46.5873863,47.1043751 L46.3954358,47.1043751 C45.8177848,47.2638038 45.3798977,47.1902059 44.7704549,47.1043751 C44.5459128,47.0825164 44.3531625,47.0398015 44.2353928,46.9116569 C44.1718092,46.8462811 44.118423,46.7817075 44.0434423,46.7185376 C44.0540396,46.6645926 44.021448,46.6427338 43.9790589,46.6427338 L43.9790589,46.5893903 C43.8820839,46.5675316 43.9574645,46.3860435 43.8612893,46.3860435 L43.7863086,46.3860435 L43.7863086,45.077926 L43.8612893,45.077926 C43.9366699,44.8852078 43.9900561,44.6477693 44.118423,44.4875384 C44.0434423,44.4131384 43.8079031,44.4664818 43.722725,44.5627407 L43.722725,44.6275148 C43.6261499,44.6160841 43.5409719,44.6062577 43.5193775,44.6798556 L43.3264272,44.6798556 C43.2838382,44.8206341 42.9635208,44.6702297 42.931729,44.8206341 C42.931729,44.8950342 42.8241568,44.8741781 42.749576,44.8852078 C42.7071869,44.9710386 42.4928422,44.8950342 42.4824449,45.0133524 C42.4716477,45.0981805 42.3646752,45.0664953 42.2896946,45.077926 C42.1935194,45.077926 42.1075416,45.0664953 42.0977441,45.1408953 C42.0117662,45.238959 41.8406104,45.2493871 41.7664295,45.3356189 C41.5842765,45.4637635 41.33814,45.5169064 41.1135979,45.6027372 C40.8576639,45.5592202 40.771686,45.6983944 40.6539164,45.7966587 L40.6539164,45.8702566 L40.5259494,45.8702566 C40.418977,45.8702566 40.2798129,45.8381703 40.2590182,45.9356324 C40.2590182,46.0096314 40.151446,45.9893769 40.0772651,45.9893769 C39.8845148,46.0750072 39.7029616,46.1488056 39.5530003,46.2568963 L39.5530003,46.3214699 L39.3500526,46.3214699 C39.317461,46.4073007 39.1039161,46.3320985 39.0937187,46.4504166 C38.6340373,46.7065053 38.0773808,46.8683404 37.5963049,47.1043751 L37.4043544,47.1043751 C37.3619653,47.2000324 37.1472207,47.1150037 37.1366234,47.2435494 C37.0302509,47.3614665 36.8375006,47.4154115 36.6129585,47.4366687 C36.5273805,47.4260401 36.4312053,47.4260401 36.4202082,47.5012423 C36.3460273,47.5975012 36.1748714,47.5975012 36.0998908,47.7047897 L36.0998908,47.757732 L35.8969431,47.757732 C35.8537542,47.8870798 35.5330369,47.7374776 35.501645,47.8967057 L35.501645,47.9614799 L35.3084948,47.9614799 C34.9347912,47.8337364 34.2719621,48.0585409 33.8118808,47.8967057 L33.6199303,47.8967057 L33.6199303,47.8215035 C33.4805662,47.7146161 33.2454269,47.7260468 33.1602488,47.565816 C33.0632738,47.4047829 32.9247096,47.2764378 32.7645509,47.1683472 C32.7327591,47.0825164 32.8497289,46.8260267 32.7111646,46.8462811 L32.636184,46.8462811 L32.636184,46.6427338 C32.5716006,46.1283506 32.8289343,45.9246027 32.8395315,45.4741916 C32.8179371,45.3989893 32.8497289,45.3566756 32.9031151,45.3356189 C32.989093,45.2604167 32.9992903,45.0981805 33.0958654,45.0133524 C33.2136351,44.9592068 33.2136351,44.7883473 33.2886157,44.6798556 L33.3631965,44.6798556 C33.4479746,44.5627407 33.6301277,44.5206274 33.6835139,44.3591933 C33.9406476,44.0806443 34.2719621,43.8664684 34.528496,43.5768897 C34.5706851,43.4477424 34.7102491,43.4054286 34.8598106,43.3831688 C35.1483362,43.2008786 35.4690534,43.0408483 35.7041928,42.7935834 C35.1593333,42.6431789 34.485707,42.9106983 34.0148285,43.0504741 L34.0148285,43.1152483 C33.9190532,43.1152483 33.822878,43.1152483 33.8118808,43.1896484 L33.6199303,43.1896484 C33.342002,43.351283 32.8497289,43.2867094 32.5716006,43.4477424 L32.5716006,43.512316 C32.2292889,43.5550309 32.0483356,43.770009 31.7282181,43.8335799 C31.6094487,43.8770969 31.3421177,43.7591799 31.3315204,43.9087821 L31.3315204,43.9627272 C31.1069783,43.9733558 30.968414,44.0700157 30.8082553,44.1656729 L30.6155051,44.1656729 C30.5511217,44.3168795 30.1562235,44.1343888 30.1020375,44.2950207 L30.1020375,44.3591933 C29.6003668,44.5087956 29.1612801,44.7344023 28.6698068,44.8852078 C28.3918785,44.8523193 28.3067004,45.0019216 28.1457419,45.077926 C27.9427943,45.2275283 27.622077,45.2604167 27.3653432,45.3356189 C27.1090093,45.4637635 26.8420781,45.5592202 26.5745471,45.6665087 C26.5745471,45.7425131 26.4567775,45.7214565 26.3817968,45.7312829 C26.3394077,45.8283439 26.1356603,45.7425131 26.1148656,45.8702566 C26.0186905,45.9893769 25.7509595,45.9673176 25.6657815,46.1283506 L25.4730312,46.1283506 C25.4302422,46.2141814 25.2276944,46.1283506 25.2057001,46.2568963 C25.0883304,46.3539573 24.9497661,46.2141814 24.8209993,46.3860435 C24.4472957,46.4718743 24.2227536,46.7065053 23.9010365,46.8462811 C23.9010365,46.9000256 23.8378528,46.9116569 23.8378528,46.9752279 C23.6764944,47.0081163 23.5383301,47.0718878 23.4421549,47.1683472 L23.2494046,47.1683472 C23.2176128,47.2638038 23.0032681,47.1795774 22.9930707,47.308123 L22.9930707,47.3718945 L22.8003204,47.3718945 C22.5549837,47.4470967 22.2770553,47.5012423 22.084305,47.6295874 L22.084305,47.7047897 C21.9559381,47.6825298 21.9457408,47.7799919 21.8173739,47.757732 C21.1969339,47.8551941 20.6194828,48.0585409 19.9992427,47.8215035 C19.8822729,47.7898183 19.7213144,47.801249 19.6679281,47.7047897 C19.6575308,47.5756424 19.4543832,47.6622753 19.4115943,47.565816 C19.2616329,47.4260401 19.0910769,47.3191527 18.9517128,47.1683472 C18.7915541,46.9435427 18.8021514,46.5356458 18.6953789,46.2568963 L18.6953789,45.8702566 C18.7589625,45.8604302 18.7489651,45.7852279 18.7589625,45.7312829 C18.6953789,45.6665087 18.299681,45.5913065 18.2356975,45.7312829 L18.2356975,45.7966587 C18.0535445,45.7425131 18.0645416,45.8929175 17.9149802,45.8702566 C17.2841429,45.9356324 16.6749,46.0214632 16.1506352,46.1929242 L16.1506352,46.2568963 L15.9586847,46.2568963 C15.7973263,46.3000122 15.488006,46.1718676 15.4342199,46.3214699 L14.7076073,46.3214699 C14.3229065,46.3637837 13.7558527,46.2356391 13.4779244,46.3860435 L13.413541,46.3860435 C12.6441394,46.3320985 12.0133021,46.1283506 11.2654949,46.0531484 L11.1261309,46.0531484 L11.1261309,45.9893769 C11.1039366,45.9141747 10.9659722,45.9356324 10.869597,45.9356324 L10.869597,45.8702566 C10.7192358,45.8702566 10.6768467,45.7531417 10.4738991,45.7966587 L10.4738991,45.7312829 C10.43151,45.6779394 10.3561294,45.6356257 10.2811488,45.6027372 C10.2175652,45.4318778 10.1209901,45.2921019 9.96083136,45.2168997 C9.97142863,45.1531282 9.93883703,45.1531282 9.89644796,45.1408953 C9.7896755,44.9062644 9.7896755,44.2839911 9.89644796,44.0379294 C9.90744513,43.8229513 10.1535817,43.8558398 10.0891983,43.5768897 C10.249357,43.5875183 10.2921459,43.4679969 10.3561294,43.3831688 C10.4633018,43.3195978 10.5484798,43.2335665 10.6132631,43.1152483 C10.6668493,43.1371071 10.6668493,43.0935901 10.6768467,43.0504741 C10.8797944,42.8256696 11.1475253,42.6550107 11.3294784,42.3973178 C11.4680427,42.3973178 11.4040592,42.2150276 11.5858123,42.26797 C11.7353737,42.1610826 11.8747378,42.0431655 11.9815103,41.8821325 C12.0992799,41.8069302 12.1950552,41.7000428 12.3018277,41.6134099 C12.3552139,41.5813236 12.4086001,41.5390098 12.494578,41.5496384 C12.6123476,41.4858669 12.6975256,41.4098625 12.761909,41.282119 C12.8152953,41.2969589 12.8258925,41.2648726 12.8258925,41.223361 C13.2431849,41.0458838 13.5529051,40.7671342 13.8628251,40.4984116 C13.8842196,40.4510844 13.9378058,40.4346401 13.9378058,40.3706681 L14.1297563,40.3706681 C14.1835424,40.2637807 14.3762927,40.2637807 14.38689,40.1083628 C14.4402762,40.0542172 14.5682432,40.0706614 14.5898377,39.9736004 C14.6966101,39.9848306 14.7499964,39.9260726 14.782588,39.8508704 C14.8461716,39.7862967 14.9101551,39.7165091 14.9745385,39.647323 C15.0279247,39.6617619 15.0389218,39.624261 15.0495191,39.5873618 C15.1354969,39.5286038 15.2414696,39.4854879 15.2414696,39.3248559 C15.1888832,39.2759243 15.0605163,39.2231825 15.0495191,39.3248559 L14.9745385,39.3248559 C14.5682432,39.1698391 14.0761701,39.4592172 13.6808721,39.5231892 L13.6808721,39.5873618 L13.5423078,39.5873618 C13.328363,39.603806 13.0932236,39.6202502 12.9538595,39.7165091 L12.9538595,39.7804811 C12.7085228,39.8614989 12.4305945,39.9030106 12.2378442,40.0427864 L12.0348965,40.0427864 C12.0031047,40.1344329 11.78876,40.0592307 11.7785626,40.1775488 C11.7677654,40.2683931 11.5858123,40.1992071 11.5858123,40.3012815 L11.3936619,40.3012815 C11.350673,40.3911231 11.1475253,40.3167231 11.1261309,40.4346401 C11.0409528,40.428624 10.9445777,40.428624 10.9341804,40.4984116 C10.772622,40.6381875 10.516688,40.691932 10.3561294,40.8262933 C10.3455322,40.8962815 10.2705515,40.8790351 10.2175652,40.8962815 C10.1743763,40.9863236 9.96083136,40.9014955 9.96083136,41.024025 C9.89644796,41.1263 9.74688653,41.1152704 9.6295168,41.1529717 C9.45836093,41.1629987 9.4049747,41.2706883 9.3087995,41.3573212 L9.3087995,41.4210927 L9.16943544,41.4210927 C8.89150711,41.5390098 8.61357878,41.6886121 8.38903668,41.8821325 C8.3354505,41.9362781 8.21828072,41.9150209 8.19688623,42.0114803 C8.11090841,42.0752518 8.00413594,42.1183677 7.94015244,42.2045996 C7.90836064,42.2789996 7.8549744,42.3431722 7.73720477,42.3325436 C7.68381854,42.3973178 7.56604891,42.3760606 7.54445448,42.4610893 C7.45927644,42.5362915 7.34150681,42.5798085 7.28812058,42.6550107 C7.28812058,42.7183811 7.20294255,42.7183811 7.15975368,42.7282076 C6.87082819,42.7183811 6.82843912,42.9106983 6.68987485,43.0504741 C6.61449429,43.1152483 6.49712456,43.1583643 6.43274116,43.254222 C6.37935493,43.2760808 6.3259687,43.3087687 6.30377442,43.3831688 C6.17640726,43.4477424 6.02724573,43.4912594 5.98365697,43.6400596 C5.8768845,43.7371205 5.70552869,43.7591799 5.65234241,43.9087821 C5.48098659,44.0054421 5.34242233,44.1558465 5.26744166,44.3591933 C5.20325821,44.4875384 5.12887739,44.5627407 5.01110776,44.6275148 C4.8717437,44.9381501 4.51883471,45.0566688 4.41206224,45.3989893 C4.33748148,45.5283372 4.31588704,45.7108279 4.15572834,45.7312829 C4.09134495,45.7852279 4.05875335,45.8494005 4.02696155,45.9356324 C3.97357532,45.9141747 3.96297805,45.9568895 3.96297805,45.9893769 C3.78162482,46.2141814 3.63166349,46.4504166 3.50369649,46.7185376 C3.45031025,46.7065053 3.43971299,46.7397948 3.43971299,46.7817075 C3.37512964,46.8260267 3.34353779,46.9000256 3.30014898,46.9752279 C3.25755996,46.9645993 3.24676274,47.0081163 3.24676274,47.0398015 C3.15058754,47.0606576 3.18257929,47.2000324 3.18257929,47.308123 C2.96903436,47.2868659 2.99042885,47.5012423 2.85106478,47.565816 C2.85106478,47.6179562 2.7660867,47.6179562 2.72349768,47.6295874 C2.49895558,47.6825298 2.47696126,47.5329275 2.27441349,47.565816 C2.21003009,47.4470967 2.1130551,47.3614665 2.00708243,47.308123 C1.97449083,47.2539774 1.94309892,47.2000324 1.94309892,47.1043751 C1.94309892,47.0081163 1.93210176,46.9214833 2.00708243,46.9116569 C2.14564669,46.8893971 2.02827696,46.5893903 2.07066603,46.4504166 C2.13504943,46.4073007 2.16684123,46.3320985 2.19903293,46.2568963 C2.34859436,46.2141814 2.23162452,45.8929175 2.27441349,45.7312829 C2.32779972,45.688568 2.37018879,45.614168 2.39098343,45.5389657 C2.54134465,45.5493938 2.42357502,45.3125569 2.46636399,45.2168997 L2.46636399,45.077926 L2.51975022,45.077926 C2.66971155,45.0566688 2.53034749,44.7344023 2.65911428,44.6798556 L2.65911428,44.4875384 C2.73409495,44.4875384 2.71250052,44.370223 2.72349768,44.2950207 L2.85106478,44.2950207 C2.95863704,43.9839844 3.17218198,43.7912661 3.18257929,43.3831688 L3.18257929,43.254222 L3.24676274,43.254222 C3.46050762,42.7725267 3.71764132,42.3221156 3.89939445,41.8069302 L3.89939445,41.6789862 C4.05875335,41.6886121 4.10234211,41.5813236 4.15572834,41.4858669 C4.26250081,41.282119 4.41206224,41.1309124 4.47604574,40.8962815 C4.57302074,40.8317079 4.6154098,40.7190048 4.66879604,40.62796 L4.74337681,40.62796 C4.72218227,40.5262866 4.80736031,40.5202704 4.80736031,40.4346401 C4.9043353,40.3969388 4.9679189,40.3389829 5.01110776,40.2415208 C5.08528864,40.1615057 5.23584981,40.1615057 5.39580856,40.1775488 L5.39580856,40.2415208 L5.58855885,40.2415208 C5.71652586,40.3496115 5.80190384,40.5038262 5.7807093,40.7623213 C5.67393684,40.8262933 5.57736174,40.9069101 5.52397551,41.024025 C5.54536999,41.1309124 5.46039191,41.1375302 5.46039191,41.223361 C5.40680572,41.2119303 5.40680572,41.2446182 5.39580856,41.282119 C5.33182506,41.3354625 5.28903609,41.4098625 5.26744166,41.4858669 C5.20325821,41.4646097 5.20325821,41.5061214 5.20325821,41.5496384 C5.064494,41.5610691 5.18246358,41.8398187 5.064494,41.8821325 C4.98951333,41.9469066 4.9361271,42.0541951 4.8717437,42.1392238 C4.80736031,42.1392238 4.82935463,42.2150276 4.80736031,42.26797 C4.68999057,42.2789996 4.7759684,42.4935766 4.66879604,42.5362915 C4.68999057,42.6008651 4.66879604,42.6431789 4.6154098,42.6550107 C4.5514263,42.6648372 4.56202357,42.7400394 4.5514263,42.7935834 C4.34847864,42.9973312 4.25230344,43.3195978 4.15572834,43.6400596 C4.08074768,43.6514903 4.10234211,43.770009 4.09134495,43.8335799 C3.99556965,43.9627272 3.85620558,44.0379294 3.89939445,44.2950207 C3.82441378,44.3046466 3.83501105,44.4131384 3.83501105,44.4875384 L3.76003039,44.4875384 C3.75023291,44.6379429 3.78162482,44.7344023 3.89939445,44.7550578 C3.95278068,44.6379429 4.04895588,44.5627407 4.09134495,44.4237669 C4.14473118,44.444623 4.15572834,44.4019082 4.15572834,44.3591933 C4.22011174,44.380651 4.22011174,44.337134 4.22011174,44.2950207 C4.35867601,44.2087889 4.46544848,44.1019014 4.5514263,43.9627272 C4.62640697,43.770009 4.80736031,43.6725469 4.9361271,43.512316 C5.05389673,43.4477424 5.14967203,43.3611094 5.20325821,43.254222 C5.2564445,43.2656528 5.2564445,43.2221357 5.26744166,43.1896484 C5.26744166,43.1264785 5.34242233,43.1371071 5.39580856,43.1152483 L5.46039191,43.1152483 C5.58855885,42.9867027 5.76991209,42.9008719 5.85509012,42.7282076 C6.12302103,42.5469201 6.3899522,42.3542019 6.63528893,42.1392238 C6.72126676,41.9992474 6.85003355,41.9248473 7.03178668,41.8821325 C7.25632878,41.818361 7.38429578,41.6789862 7.54445448,41.5496384 C7.71561034,41.5061214 7.80178812,41.3679498 7.94015244,41.282119 L7.94015244,41.3573212 C8.14369995,41.3458905 8.15369737,41.1309124 8.32485323,41.0885986 C8.41083106,41.024025 8.5282008,40.9863236 8.59278414,40.8962815 C8.63537316,40.8046351 8.73114846,40.7671342 8.84911804,40.7623213 C8.89150711,40.6698727 9.10545194,40.7450749 9.10545194,40.62796 C9.10545194,40.5686004 9.19102987,40.5798306 9.244816,40.5686004 C9.42656913,40.4885852 9.61851963,40.4187975 9.75788369,40.3012815 C9.76808106,40.2519489 9.83286436,40.2415208 9.83286436,40.1775488 L9.96083136,40.1775488 C10.2175652,40.0804878 10.3989184,39.920257 10.6768467,39.8508704 C10.7518274,39.8556833 10.7946163,39.833624 10.8052136,39.7804811 C10.8480026,39.6683796 11.1159335,39.7862967 11.1261309,39.647323 C11.2011115,39.6617619 11.2437005,39.6358923 11.2654949,39.5873618 C11.7251764,39.3358856 12.281033,39.1736493 12.8258925,38.9975758 C12.9220677,38.965289 13.1682043,39.0781926 13.1466098,38.9285903 C13.2431849,38.9392189 13.3393601,38.9442324 13.3497574,38.8698323 C13.3601548,38.7880123 13.4671272,38.8102722 13.5423078,38.8052587 C14.0123866,38.7511131 14.4512734,38.6712985 14.8461716,38.5427528 C14.9855356,38.4992358 15.2740612,38.6229685 15.305853,38.4713608 C15.6265703,38.4350632 15.6481647,38.6923551 16.0226682,38.6015108 C16.1826269,38.5960963 16.2901992,38.6390117 16.3533829,38.7358721 C16.3325882,38.7880123 16.3751773,38.7992425 16.4183661,38.8052587 C16.632111,39.1533948 16.3857745,39.603806 16.2146187,39.7804811 C16.1188434,39.9030106 16.0122708,40.0159142 15.8835041,40.1083628 C15.841115,40.1023466 15.8299179,40.1344329 15.8193206,40.1775488 C15.7549372,40.2415208 15.6915536,40.3012815 15.6265703,40.3706681 C15.6053758,40.4510844 15.5413923,40.5038262 15.4342199,40.4984116 L15.360039,40.4984116 C15.305853,40.6175319 15.1248997,40.605299 15.1029054,40.7623213 C15.0707137,40.8521629 14.8575686,40.7671342 14.8461716,40.8962815 C14.7927853,40.9496249 14.6648183,40.9279667 14.6542211,41.024025 C14.2903149,41.2706883 13.9378058,41.5281807 13.6062913,41.8069302 C13.5846969,41.8919589 13.5203135,41.9469066 13.413541,41.9469066 C13.3601548,41.9789929 13.3067685,42.0114803 13.2109932,42.0114803 C13.0822264,42.0858803 12.9644568,42.2045996 12.8902759,42.3325436 C12.8368897,42.3221156 12.8258925,42.3542019 12.8258925,42.3973178 C12.6865285,42.4610893 12.5483641,42.5152349 12.494578,42.6550107 C12.4839807,42.7512696 12.3018277,42.6760674 12.3018277,42.7935834 C12.1098772,42.8362982 12.0348965,43.0071577 11.9171269,43.1152483 C11.8637406,43.1152483 11.8531434,43.1469335 11.8421462,43.1896484 C11.7785626,43.254222 11.7145791,43.3087687 11.6501957,43.3831688 L11.5858123,43.3831688 L11.5858123,43.5768897 C11.4256536,43.5550309 11.307884,43.5981468 11.3294784,43.770009 C11.0507503,44.0258971 10.7518274,44.6062577 11.0725447,44.8852078 C11.0941391,44.9381501 11.1261309,45.0019216 11.2011115,45.0133524 C11.2654949,45.0981805 11.3722674,45.1408953 11.4680427,45.2168997 C11.4790399,45.3027305 11.6176041,45.2710453 11.7145791,45.2808717 C11.7251764,45.3356189 11.7993572,45.3237871 11.8421462,45.3356189 C13.413541,45.9141747 16.0226682,45.688568 17.5184824,45.2168997 C17.593863,45.2168997 17.6370519,45.1958431 17.6472492,45.1408953 C18.0111554,45.1096112 18.3744617,45.0885546 18.6309955,44.9485782 C18.7161736,44.9592068 18.8131486,44.9592068 18.823146,44.8852078 C18.823146,44.8206341 18.9089239,44.8310622 18.9517128,44.8206341 C19.1008744,44.8416908 19.1980493,44.7989759 19.2080467,44.6798556 C19.3048218,44.6275148 19.4225914,44.5831957 19.4115943,44.4237669 C19.4967723,44.3591933 19.5395613,44.2416773 19.6043445,44.1656729 C19.7429088,43.9627272 19.9348593,43.8434064 20.0636261,43.6400596 C20.1602012,43.6079733 20.2135874,43.532771 20.2563764,43.4477424 C20.3733462,43.3935968 20.4483269,43.3087687 20.5127103,43.1896484 C20.6084856,43.1152483 20.7160579,43.0725335 20.7694441,42.9867027 C20.9613946,42.8798152 21.1435476,42.7400394 21.3037063,42.6008651 C21.4430704,42.4610893 21.6994043,42.4400327 21.8173739,42.26797 C21.9131492,42.2789996 21.998927,42.2789996 22.0199216,42.2045996 C22.0733079,42.2150276 22.0733079,42.1821392 22.084305,42.1392238 C22.1800803,42.1392238 22.2660582,42.150454 22.2770553,42.0752518 C22.3940252,41.9573347 22.6185673,41.9362781 22.8003204,41.8821325 C22.8964956,41.8717044 23.0464569,41.9037907 23.0574541,41.8069302 L24.4894848,41.8069302 C24.5756626,41.8069302 24.6072544,41.8281874 24.6176517,41.8821325 C24.6926324,41.9573347 24.7994049,42.0114803 24.8853827,42.0752518 C25.2810807,42.0640216 25.0883304,42.6648372 25.0773332,42.7282076 L25.0773332,42.7935834 L25.0129498,42.7935834 C25.066336,42.9752719 24.8853827,42.922129 24.8853827,43.0504741 C24.6072544,43.2335665 24.3511205,43.4258836 24.0937868,43.6400596 C24.0082089,43.6302331 23.9230309,43.6302331 23.9010365,43.7054353 C23.8270556,43.8018947 23.6558998,43.8115206 23.5807191,43.9087821 C23.5057385,44.048558 23.2604017,44.0160706 23.1850212,44.1656729 L22.9930707,44.1656729 C22.7469342,44.3046466 22.3304416,44.2839911 22.1484885,44.4875384 C22.1266941,44.6379429 21.8597629,44.5523126 21.8173739,44.6798556 C21.6668127,44.6702297 21.5818346,44.7027171 21.5602402,44.8206341 C21.4430704,44.8096045 21.4216759,44.8950342 21.3037063,44.8852078 C21.2069313,44.916893 20.9613946,44.8096045 20.9723918,44.9485782 L20.9723918,45.0133524 C20.8122331,44.9920952 20.8330277,45.1310689 20.6508747,45.077926 L20.2563764,45.077926 C20.1386068,45.1408953 20.0526289,45.2275283 19.9992427,45.3356189 C19.7323115,45.4741916 19.7429088,46.2240078 19.8606784,46.5141881 C19.8606784,46.610848 19.8606784,46.7065053 19.9348593,46.7185376 C19.9784481,46.8893971 20.0852205,46.9974877 20.2563764,47.0398015 C20.3305573,47.0291729 20.3733462,47.0504301 20.3847433,47.1043751 C20.3949407,47.1795774 20.5017131,47.1683472 20.587691,47.1683472 C20.7694441,47.3295807 21.2287257,47.2116636 21.3680897,47.1043751 C21.4430704,47.1150037 21.4748622,47.0931449 21.4966566,47.0398015 C21.5068539,46.9645993 21.6136264,46.986057 21.6886071,46.9752279 C21.7951796,46.9645993 21.9347436,47.0081163 21.9559381,46.9116569 C22.0413161,46.9214833 22.1376913,46.9214833 22.1484885,46.8462811 C22.3732305,46.6214766 22.7893232,46.5787618 23.0574541,46.3860435 C23.1532294,46.3539573 23.398966,46.4604436 23.3887686,46.3214699 C23.398966,46.2681265 23.4421549,46.2568963 23.4421549,46.1929242 C23.6558998,46.2035528 23.666697,46.0096314 23.9010365,46.0531484 C23.9980115,46.0750072 24.0937868,46.0750072 24.0937868,45.9893769 C24.1799646,45.9027439 24.3511205,45.8929175 24.4360986,45.7966587 C24.4790875,45.6983944 24.6392462,45.7108279 24.7460186,45.6665087 C24.810402,45.6779394 24.810402,45.6462542 24.8209993,45.6027372 C24.9069771,45.6027372 25.0031523,45.614168 25.0129498,45.5389657 C25.1951028,45.4318778 25.376856,45.3356189 25.6013981,45.2808717 C25.6975733,45.2710453 25.857732,45.3125569 25.857732,45.2168997 C25.954707,45.2168997 26.0504823,45.2168997 26.0614794,45.1408953 C26.1682519,45.0237804 26.3602024,44.9710386 26.5745471,44.9485782 C26.6709223,44.9592068 26.7664976,44.9592068 26.7664976,44.8852078 C26.8094865,44.7883473 27.0236313,44.8741781 27.0340286,44.7550578 C27.3973349,44.5733692 27.7292493,44.3591933 28.2097254,44.2950207 C28.3706839,44.2839911 28.5092482,44.2619318 28.5944262,44.1656729 C28.6054234,44.0904707 28.7121959,44.1019014 28.7871765,44.1019014 C29.0651049,44.1221559 29.1510827,43.9839844 29.3222386,43.9087821 C29.4074166,43.9087821 29.5037917,43.9087821 29.5141891,43.8335799 C29.5675753,43.8434064 29.5787724,43.8115206 29.5787724,43.770009 C29.6637505,43.7798354 29.7605255,43.7798354 29.7707229,43.7054353 C30.0702457,43.5229446 30.4549465,43.4258836 30.8082553,43.3087687 L31.0751865,43.3087687 C31.1285727,43.3294242 31.1395699,43.2867094 31.1395699,43.254222 C31.2353452,43.254222 31.321323,43.254222 31.3315204,43.1896484 C31.4174982,43.0935901 31.5560625,43.0619049 31.7282181,43.0504741 C31.8339908,43.0504741 31.9733549,43.0823599 31.9951493,42.9867027 C32.0801274,42.9973312 32.1759027,42.9973312 32.1870998,42.922129 C32.3900474,42.7400394 32.7429564,42.6965224 33.031482,42.6008651 C33.3737938,42.5469201 33.7161055,42.5152349 34.0148285,42.3973178 C34.1008063,42.4077458 34.1969815,42.4077458 34.1969815,42.3325436 C34.2075787,42.26797 34.2827594,42.2789996 34.3365455,42.26797 C35.2237167,42.170909 36.5807668,41.7000428 37.3293737,42.26797 C37.3619653,42.4077458 37.2865848,42.4400327 37.2651903,42.5362915 C37.2006069,42.5152349 37.2006069,42.5573481 37.2006069,42.6008651 C37.0828373,42.6008651 37.1690151,42.8152416 37.0732398,42.858157 C37.0196536,42.847729 37.0086564,42.8798152 37.0086564,42.922129 C36.8802895,43.0725335 36.6981365,43.1687923 36.548975,43.3087687 C36.4955887,43.3725402 36.3778191,43.351283 36.3562247,43.4477424 C36.2710466,43.512316 36.153277,43.5550309 36.0998908,43.6400596 C35.8435569,43.6079733 35.800368,43.7798354 35.7041928,43.9087821 C35.3944727,43.9627272 35.234314,44.1656729 35.0525608,44.3591933 C34.8910025,44.4131384 34.7744326,44.5206274 34.7318436,44.6798556 C34.2075787,45.0237804 33.9614422,45.6237938 33.8118808,46.3214699 L33.8118808,46.4504166 C33.8012835,46.674419 33.9406476,46.7612525 34.0148285,46.9116569 C34.0898091,47.0081163 34.0690145,47.2000324 34.2719621,47.1683472 C34.5073015,47.3614665 34.9771803,47.2966923 35.2445113,47.1683472 C35.3410864,47.1795774 35.4262645,47.1795774 35.4372616,47.1043751 C35.501645,47.0081163 35.5974203,46.9645993 35.7685762,46.9752279 C35.8643515,46.9435427 36.1108879,47.0504301 36.0998908,46.9116569 C36.1850688,46.9214833 36.2710466,46.9214833 36.2926411,46.8462811 C36.3994135,46.7185376 36.591364,46.6645926 36.8053089,46.6427338 C36.9020839,46.653964 36.9980592,46.6645926 37.0086564,46.5893903 C37.0516453,46.492931 37.2539932,46.5675316 37.2651903,46.4504166 C37.3619653,46.4604436 37.4577406,46.4604436 37.4577406,46.3860435 C37.5213242,46.39587 37.5213242,46.3637837 37.5213242,46.3214699 C37.6180993,46.3320985 37.7142745,46.3320985 37.7142745,46.2568963 C38.0773808,46.063777 38.4946732,45.9356324 38.9009684,45.7966587 C38.9861465,45.8072873 39.0819218,45.8177153 39.0937187,45.7312829 C39.147105,45.7425131 39.1573023,45.7108279 39.1573023,45.6665087 C39.2538774,45.6779394 39.3390555,45.6779394 39.3500526,45.6027372 C39.4354306,45.5064784 39.5853919,45.4741916 39.7457506,45.4741916 C39.8415259,45.4741916 39.9275037,45.484018 39.9377011,45.3989893 C39.9910873,45.4198454 40.0018845,45.3779327 40.0018845,45.3356189 C40.0980597,45.3454454 40.193835,45.3566756 40.193835,45.2808717 C40.29081,45.1408953 40.4937577,45.1310689 40.6539164,45.077926 C41.0496144,44.9381501 41.477504,44.8523193 41.7664295,44.6275148 C41.8622048,44.6275148 41.9473829,44.6379429 41.95838,44.5627407 C42.1401331,44.4875384 42.3320836,44.4019082 42.4824449,44.2950207 C42.664198,44.1771037 42.8881403,44.0904707 43.1342768,44.0379294 C43.2838382,43.9186086 43.5943581,43.9627272 43.722725,43.8335799 C43.7973058,43.8434064 43.8396949,43.8229513 43.8612893,43.770009 C43.9040783,43.6725469 44.0540396,43.6725469 44.1718092,43.6400596 C44.2785817,43.6400596 44.4281431,43.6725469 44.4387404,43.5768897 C44.5133212,43.5875183 44.55651,43.5656595 44.5667074,43.512316 C44.684477,43.4054286 44.8128439,43.3087687 45.0263889,43.3087687 C45.1225641,43.3195978 45.2087418,43.3294242 45.2191391,43.254222 C45.4548784,43.1469335 45.6786207,43.0619049 45.9997379,43.0504741 C46.0959131,43.1896484 46.3310524,43.2123093 46.3310524,43.4477424 C46.1492993,43.512316 46.1175075,43.7054353 45.9997379,43.8335799 C45.7751958,43.8335799 45.9031628,44.1771037 45.6786207,44.1656729 C45.4436812,44.1973581 45.4332839,44.444623 45.2191391,44.4875384 L45.2191391,44.6798556 C45.1551556,44.6920885 45.1659529,44.7664885 45.1551556,44.8206341 C45.079975,44.9592068 44.952208,45.0566688 44.9624054,45.2808717 L44.9624054,45.3989893 C44.8446357,45.3779327 44.8446357,45.7629681 44.9624054,45.7312829 C44.9624054,45.8381703 44.9306136,45.9893769 45.0263889,45.9893769 C44.9841997,46.6966788 46.0315297,46.4177287 46.4590194,46.3214699 C46.5340001,46.3320985 46.5665917,46.3108413 46.5873863,46.2568963 C46.6835615,46.2462677 46.84452,46.2885815 46.84452,46.1929242 C46.929698,46.2035528 46.9614898,46.1718676 46.9830843,46.1283506 C47.1224483,45.9893769 47.3567879,45.9356324 47.5605354,45.8702566 C47.7742802,45.9246027 47.763483,45.7629681 47.8274665,45.6665087 L47.9564333,45.6665087 C48.1699782,45.7214565 48.1587811,45.571052 48.2125672,45.4741916 L48.3507316,45.4741916 C48.5122899,45.484018 48.554679,45.3779327 48.6080652,45.2808717 C48.6834458,45.2808717 48.7258349,45.2604167 48.736832,45.2168997 C49.1749191,45.0981805 49.5062336,44.4875384 49.1965135,44.0379294 C49.1313303,43.951497 49.0889412,43.8335799 49.0037632,43.770009 L48.9287825,43.770009 C48.9393798,43.6839776 48.950377,43.5875183 48.8651989,43.5768897 C48.7042404,43.4258836 48.6080652,43.2335665 48.3507316,43.1896484 C48.3507316,43.1264785 48.3195396,43.1264785 48.2767507,43.1152483 C48.2341617,42.9973312 48.1381864,42.9106983 48.019617,42.858157 C47.7100968,42.8798152 47.6992996,42.6114937 47.4427657,42.6008651 C47.2716099,42.5573481 47.1330456,42.5046063 47.0470678,42.3973178 L47.0470678,42.3325436 C46.8869091,42.3431722 46.84452,42.2150276 46.6517697,42.26797 C46.6089807,42.1821392 46.5124056,42.150454 46.3954358,42.1392238 L46.3954358,42.0114803 C46.2886633,42.0221089 46.2776662,41.9469066 46.1924881,41.9469066 C46.1383021,41.8602737 46.0849159,41.7431588 45.9997379,41.6789862 C45.91376,41.4000361 46.1924881,41.4646097 46.2670689,41.3573212 C46.2670689,41.282119 46.352247,41.302574 46.3954358,41.282119 C46.9077037,41.2331874 47.4321685,41.1954861 47.8918499,41.0885986 L47.9564333,41.0885986 C47.9662307,41.1954861 48.4055175,41.1954861 48.4161147,41.0885986 L48.4796983,41.0885986 C48.5330846,41.2331874 48.8436045,41.110658 49.0037632,41.1529717 L49.8485453,41.1529717 C49.7951591,41.2648726 50.1586654,41.2648726 50.1156765,41.1529717 L50.2332461,41.1529717 C50.4577882,41.302574 50.9604586,41.179844 51.280776,41.223361 C51.280776,41.282119 51.3667538,41.2706883 51.408943,41.282119 L51.408943,41.3573212 C53.1414962,41.3679498 54.541935,41.7000428 56.0385491,41.9469066 C56.1559188,42.0431655 56.3480693,42.0640216 56.5618142,42.0752518 C56.5618142,42.1392238 56.6479919,42.1183677 56.690381,42.1392238 C56.7011782,42.2789996 56.9677095,42.1610826 57.085879,42.2045996 C57.085879,42.26797 57.1608597,42.2573414 57.213846,42.26797 C57.2358404,42.3542019 57.3744046,42.3221156 57.4811771,42.3325436 C57.5455605,42.3221156 57.5889493,42.3542019 57.5985468,42.3973178 C57.5985468,42.4610893 57.6849245,42.4496585 57.7389106,42.4610893 C57.7599052,42.5573481 57.8984695,42.5152349 57.9948446,42.5362915 C58.2303839,42.5362915 58.3689482,42.6319487 58.5189095,42.7282076 C58.5295067,42.8038109 58.637079,42.7829548 58.7104601,42.7935834 C58.8286296,42.9550175 59.0853634,42.9867027 59.2337251,43.1152483 L59.2337251,43.1896484 L59.4268753,43.1896484 C59.4912587,43.2760808 59.5978313,43.3087687 59.6836091,43.3831688 C59.8653623,43.532771 60.0153236,43.7054353 60.1540878,43.9087821 C60.1334931,43.9948135 60.1334931,44.0904707 60.2068742,44.1019014 C60.2932519,44.1452179 60.2182713,44.3485647 60.335641,44.3591933 L60.335641,44.6798556 C60.3152463,44.9814666 60.1114988,45.3989893 60.2068742,45.6027372 C60.4106217,45.5389657 60.5289911,45.3989893 60.7317389,45.3356189 C60.8067195,45.3566756 60.8491086,45.3237871 60.8607056,45.2808717 C61.0088674,45.1958431 61.1588287,45.0885546 61.3839707,45.077926 C61.4793461,45.0454386 61.7146854,45.1637568 61.7146854,45.0133524 C61.7146854,44.9381501 61.8320551,44.9592068 61.9072357,44.9485782 C62.014808,44.9381501 62.1533722,44.9814666 62.1745668,44.8852078 C62.2389502,44.8950342 62.282139,44.8741781 62.2919365,44.8206341 C62.3881117,44.7779193 62.623651,44.8950342 62.623651,44.7550578 C62.7092289,44.7664885 62.8054041,44.7664885 62.8152016,44.6798556 C63.0939297,44.7027171 63.2122992,44.5627407 63.4038498,44.4875384 C63.499825,44.4989692 63.5968,44.4989692 63.5968,44.4237669 C63.8211422,44.4019082 64.0460842,44.3912796 64.1960455,44.2950207 C64.2806237,44.3046466 64.3664016,44.3046466 64.3875961,44.2302466 C64.4845711,44.1973581 64.7193106,44.3046466 64.7087133,44.1656729 C64.783694,44.0700157 64.9328555,44.048558 65.1040114,44.0379294 C65.2001866,44.0258971 65.3501479,44.0700157 65.3609451,43.9627272 C65.4561206,43.9733558 65.5424983,43.9839844 65.5636928,43.9087821 C65.660068,43.8981536 65.7984323,43.9408684 65.8206266,43.8335799 C65.9060045,43.8434064 66.0023797,43.8434064 66.0135768,43.770009 C66.2157247,43.770009 66.408275,43.7371205 66.5370418,43.6400596 L66.6658086,43.6400596 C66.8791536,43.6302331 67.0603069,43.6079733 67.1784764,43.512316 C67.2844491,43.512316 67.370027,43.5229446 67.3814241,43.4477424 C68.0866422,43.3294242 68.7392739,43.1469335 69.402103,42.9867027 C69.4982782,42.9973312 69.5830563,42.9973312 69.5936536,42.922129 C69.6898288,42.8904438 69.9359653,42.9973312 69.9253681,42.858157 C70.010946,42.858157 70.1071212,42.8679834 70.1185182,42.7935834 C70.6099915,42.7183811 71.0802702,42.6221223 71.4861656,42.4610893 C71.5611462,42.4821459 71.6035353,42.4496585 71.6151323,42.3973178 L71.678516,42.3973178 C71.6361269,42.5046063 71.988436,42.5046063 71.945847,42.3973178 C72.0324247,42.4077458 72.1285999,42.4077458 72.1383974,42.3325436 C72.2671642,42.2150276 72.4807091,42.1935699 72.6624622,42.1392238 C72.7690347,42.1392238 72.9085988,42.170909 72.919196,42.0752518 C73.016171,42.0752518 73.1001494,42.0752518 73.1221437,42.0114803 C73.1221437,41.9362781 73.2387136,41.9573347 73.3136943,41.9469066 C73.4212665,41.9469066 73.5600308,41.9789929 73.5810254,41.8821325 C73.667603,41.8821325 73.752981,41.8821325 73.7635783,41.8069302 C73.8695509,41.8069302 74.0099148,41.8398187 74.0319091,41.7431588 L74.0319091,41.6789862 C74.2118627,41.6248406 74.1916679,41.775245 74.3506269,41.7431588 C74.4476019,41.7000428 74.6929386,41.818361 74.6839409,41.6789862 C74.7679193,41.6886121 74.8648943,41.6886121 74.8754915,41.6134099 C75.2178033,41.603784 75.5495177,41.603784 75.6554904,41.8069302 C75.7198738,42.0221089 75.6025041,42.0640216 75.5275234,42.1392238 C75.4859341,42.1610826 75.3987566,42.1392238 75.3987566,42.2045996 C75.2601923,42.4077458 74.7899136,42.2902298 74.6185578,42.4610893 L74.6185578,42.5362915 L74.4256076,42.5362915 C74.3194349,42.5362915 74.1702734,42.4935766 74.1590763,42.6008651 L74.1590763,42.6550107 L73.9657261,42.6550107 C73.8605533,42.6648372 73.7203894,42.6319487 73.6983951,42.7282076 C73.6030197,42.7183811 73.5176417,42.7183811 73.5068445,42.7935834 C73.3038968,42.7400394 73.3136943,42.9008719 73.1221437,42.858157 C73.016171,42.858157 72.8654099,42.8256696 72.8556124,42.922129 C72.8556124,42.9867027 72.8010265,42.9973312 72.7904292,43.0504741 C72.6730595,43.0504741 72.651865,43.1371071 72.5344952,43.1152483 C72.3095532,43.0935901 72.2565669,43.2335665 72.1383974,43.3087687 C72.1383974,43.3831688 72.0846112,43.3935968 72.0748138,43.4477424 C71.8824634,43.4258836 71.8716662,43.5875183 71.678516,43.5768897 C71.6035353,43.6079733 71.5401516,43.6514903 71.4861656,43.7054353 C71.4015874,43.770009 71.2834178,43.8115206 71.2190344,43.9087821 C71.1766454,43.8867228 71.1660481,43.9302398 71.1660481,43.9627272 C70.7275612,43.9302398 70.6851721,44.2733625 70.4494329,44.4237669 C70.2146934,44.5206274 70.1071212,44.7454319 69.9253681,44.8852078 C69.8723817,45.0019216 69.7762065,45.0885546 69.6588368,45.1408953 C69.3799087,45.4318778 69.1241747,45.7425131 69.0807858,46.2568963 C69.1241747,46.3000122 69.2529415,46.3539573 69.274136,46.2568963 C69.3165251,46.2462677 69.402103,46.2568963 69.402103,46.1929242 C69.5200726,46.0852347 69.6366425,45.9893769 69.8609847,45.9893769 C70.2570825,45.8494005 70.5668026,45.6237938 70.8985171,45.3989893 C70.8985171,45.3356189 70.9517034,45.3237871 70.9629005,45.2808717 L71.0918672,45.2808717 C71.3036126,45.3356189 71.3036126,45.1733827 71.3591983,45.077926 L71.4861656,45.077926 C71.6151323,45.077926 71.7007102,45.0336068 71.7534966,44.9485782 C71.7966855,44.9381501 71.8716662,44.9485782 71.8716662,44.8852078 C71.903458,44.7989759 71.957444,44.7550578 72.0748138,44.7550578 C72.1285999,44.7664885 72.1383974,44.7344023 72.1383974,44.6798556 C72.2345726,44.6920885 72.3199505,44.7027171 72.3307478,44.6275148 C72.4277228,44.5627407 72.5344952,44.5087956 72.5980788,44.4237669 C72.6730595,44.3275081 72.8442154,44.3275081 72.919196,44.2302466 C72.9615851,44.2198185 73.047163,44.2302466 73.047163,44.1656729 C73.1971243,44.0258971 73.4644554,44.0054421 73.5810254,43.8335799 C73.5810254,43.770009 73.6234144,43.7591799 73.6356113,43.7054353 L73.7635783,43.7054353 C73.8385589,43.6725469 73.91194,43.6400596 73.9657261,43.5768897 C74.3944156,43.3725402 74.8428999,43.1896484 75.1434224,42.858157 C75.1434224,42.7935834 75.1850117,42.7725267 75.207206,42.7282076 C75.3987566,42.7725267 75.3237759,42.5469201 75.5275234,42.6008651 C75.6025041,42.5573481 75.6774847,42.5248608 75.7198738,42.4610893 C75.9122242,42.3431722 76.0931775,42.2150276 76.2439387,42.0752518 C76.5104699,41.989421 76.6068451,41.7431588 76.8317871,41.6134099 C76.8201901,41.6789862 76.8527816,41.6789862 76.8951707,41.6789862 C77.0665265,41.4415477 77.4202353,41.3789795 77.5587996,41.0885986 C77.5897916,41.0885986 77.6223832,41.0835852 77.6223832,41.024025 C77.8571227,40.9656681 77.9109088,40.7133897 78.1358508,40.62796 C78.2532205,40.5736138 78.3387984,40.4885852 78.3919847,40.3706681 C78.5531432,40.1992071 78.7764856,40.0919186 78.7886824,39.7804811 C78.7764856,39.706081 78.8090772,39.6683796 78.852266,39.647323 L78.9168494,39.647323 C78.9168494,39.501531 79.034819,39.4592172 78.980233,39.2556699 C79.0552137,39.2442391 79.0226221,39.1321377 79.1187973,39.1321377 C79.2061748,39.1110811 79.1839805,38.9873483 79.2369668,38.9285903 L79.3119475,38.9285903 C79.3869282,38.6442257 79.6110704,38.4946234 79.6968482,38.2156733 C79.8044205,38.2156733 79.7400371,38.0335837 79.8370121,38.0171394 C79.9209904,37.9846521 79.9959711,37.9152655 80.0285627,37.8178034 C80.008168,37.6690033 80.2101159,37.7484168 80.2217129,37.6313019 L80.2217129,37.6313019 Z" id="Fill-9" fill="#313532"></path>
                    </g>
                </g>
            </g>
        </g>
    </g>
</svg>