<?xml version="1.0" encoding="UTF-8" standalone="no"?>
<svg width="24px" height="23px" viewBox="0 0 24 23" version="1.1" xmlns="http://www.w3.org/2000/svg" xmlns:xlink="http://www.w3.org/1999/xlink">
    <!-- Generator: Sketch 44.1 (41455) - http://www.bohemiancoding.com/sketch -->
    <title>Icon / twitter</title>
    <desc>Created with Sketch.</desc>
    <defs></defs>
    <g id="Page-1" stroke="none" stroke-width="1" fill="none" fill-rule="evenodd">
        <g id="Release-Detail" transform="translate(-216.000000, -911.000000)">
            <g id="Icon-/-twitter" transform="translate(216.000000, 911.000000)">
                <g>
                    <rect id="Rectangle-3" fill="#09B8D1" x="0.558692604" y="0" width="23" height="23" rx="2"></rect>
                    <path d="M17.9792822,8.56614655 C17.5809387,8.74680727 17.151415,8.86898071 16.702165,8.92356884 C17.1615963,8.64282988 17.5141239,8.19767666 17.6795701,7.66739195 C17.2500464,7.92798529 16.7740704,8.11644432 16.2669142,8.21782228 C15.8622074,7.77656821 15.2837821,7.50102811 14.6436327,7.50102811 C13.4161493,7.50102811 12.4202905,8.518057 12.4202905,9.77228432 C12.4202905,9.95034561 12.4387441,10.123208 12.4775603,10.2895719 C10.6290174,10.1946925 8.99046388,9.29138888 7.8927921,7.91628783 C7.70125633,8.25291465 7.59180731,8.64282988 7.59180731,9.05873946 C7.59180731,9.84636822 7.98442383,10.541717 8.58130275,10.9491785 C8.21668482,10.9381309 7.87370215,10.8348033 7.5733537,10.6658401 L7.5733537,10.693784 C7.5733537,11.7946446 8.34013312,12.712895 9.35826347,12.9208498 C9.17118202,12.9741382 8.97519193,13.0007824 8.77156586,13.0007824 C8.62839128,13.0007824 8.48839835,12.9871354 8.35349608,12.9604912 C8.63602726,13.8624951 9.45753118,14.5201521 10.4311183,14.5370484 C9.66942956,15.1466159 8.71047804,15.5098869 7.66880342,15.5098869 C7.48935795,15.5098869 7.31182147,15.4994892 7.13810297,15.4786937 C8.12250776,16.1220538 9.29144867,16.4989719 10.547567,16.4989719 C14.6391783,16.4989719 16.8758835,13.0378244 16.8758835,10.036127 C16.8758835,9.93734844 16.8739745,9.83856991 16.8695201,9.74239082 C17.3041345,9.42136062 17.6821154,9.02169751 17.9792822,8.56614655" id="twitter-Fill-1" fill="#FFFFFF"></path>
                </g>
            </g>
        </g>
    </g>
</svg>